<svg width="56" height="56" viewBox="0 0 56 56" fill="none" xmlns="http://www.w3.org/2000/svg">
<path d="M29.5 4.99992H40.7C45.1804 4.99992 47.4206 4.99992 49.1319 5.87187C50.6372 6.63885 51.8611 7.8627 52.6281 9.368C53.5 11.0793 53.5 13.3195 53.5 17.7999V40.1999C53.5 44.6803 53.5 46.9206 52.6281 48.6318C51.8611 50.1371 50.6372 51.361 49.1319 52.128C47.4206 52.9999 45.1804 52.9999 40.7 52.9999H18.3C13.8196 52.9999 11.5794 52.9999 9.86808 52.128C8.36278 51.361 7.13893 50.1371 6.37195 48.6318C5.5 46.9206 5.5 44.6803 5.5 40.1999V28.9999M18.8333 31.6666V42.3333M40.1667 26.3333V42.3333M29.5 15.6666V42.3333M2.83333 10.3333L10.8333 2.33325M10.8333 2.33325L18.8333 10.3333M10.8333 2.33325L10.8333 18.3333" stroke="#52B44A" stroke-width="4.5" stroke-linecap="round" stroke-linejoin="round"/>
</svg>
