<svg width="24" height="25" viewBox="0 0 24 25" fill="none" xmlns="http://www.w3.org/2000/svg">
<path d="M21 21.2896H4.6C4.03995 21.2896 3.75992 21.2896 3.54601 21.1806C3.35785 21.0847 3.20487 20.9317 3.10899 20.7435C3 20.5296 3 20.2496 3 19.6896V3.28955M21 7.28955L15.5657 12.7239C15.3677 12.9219 15.2687 13.0209 15.1545 13.058C15.0541 13.0906 14.9459 13.0906 14.8455 13.058C14.7313 13.0209 14.6323 12.9219 14.4343 12.7239L12.5657 10.8552C12.3677 10.6572 12.2687 10.5582 12.1545 10.5211C12.0541 10.4885 11.9459 10.4885 11.8455 10.5211C11.7313 10.5582 11.6323 10.6572 11.4343 10.8552L7 15.2896M21 7.28955H17M21 7.28955V11.2896" stroke="#52B44A" stroke-width="2" stroke-linecap="round" stroke-linejoin="round"/>
</svg>
