<svg width="65" height="64" viewBox="0 0 65 64" fill="none" xmlns="http://www.w3.org/2000/svg">
<path d="M5.83334 31.9999H59.1667M5.83334 31.9999C5.83334 46.7275 17.7724 58.6666 32.5 58.6666M5.83334 31.9999C5.83334 17.2723 17.7724 5.33325 32.5 5.33325M59.1667 31.9999C59.1667 46.7275 47.2276 58.6666 32.5 58.6666M59.1667 31.9999C59.1667 17.2723 47.2276 5.33325 32.5 5.33325M32.5 5.33325C39.1701 12.6355 42.9607 22.112 43.1667 31.9999C42.9607 41.8878 39.1701 51.3643 32.5 58.6666M32.5 5.33325C25.8299 12.6355 22.0393 22.112 21.8333 31.9999C22.0393 41.8878 25.8299 51.3643 32.5 58.6666" stroke="#52B44A" stroke-width="4.5" stroke-linecap="round" stroke-linejoin="round"/>
</svg>
