<svg width="25" height="25" fill="currentColor" viewBox="0 0 24 24" xmlns="http://www.w3.org/2000/svg">
  <path d="M4.583 17.318C3.553 16.224 3 14.998 3 13.008c0-3.5 2.457-6.637 6.03-8.188l.893 1.378c-3.335 1.804-3.987 4.145-4.247 5.621.537-.278 1.24-.375 1.929-.31 1.804.166 3.226 1.647 3.226 3.488a3.5 3.5 0 0 1-3.5 3.5 3.871 3.871 0 0 1-2.748-1.179Zm10 0c-1.03-1.094-1.583-2.32-1.583-4.31 0-3.5 2.457-6.637 6.03-8.188l.893 1.378c-3.335 1.804-3.987 4.145-4.247 5.621.537-.278 1.24-.375 1.929-.31 1.804.166 3.226 1.647 3.226 3.488a3.5 3.5 0 0 1-3.5 3.5 3.871 3.871 0 0 1-2.748-1.179Z"></path>
</svg>